# xmcd
#
# Track frame offsets:
#	150
#	15671
#	29615
#	42804
#	57693
#	71480
#	85168
#	99646
#	114910
#	127950
#	143198
#	152876
#	162562
#	178756
#	195364
#	210647
#	224556
#	237336
#	250154
#	263138
#	275812
#	293812
#	305212
#	318741
#	329975
#
# Disc length: 4591 seconds
#
# Revision: 0
# Processed by: cddbd v1.5.2PL0 Copyright (c) Steve Scherf et al.
# Submitted via: EasyCDDAExtractor 10.2.0.1
#
DISCID=8d11ed19
DTITLE=Various Artist - The Road To Robert Johnson And Beyond - Disc C
DYEAR=2007
DGENRE=Blues
TTITLE0=Muddy Waters - Country Blues, No.1
TTITLE1=Muddy Waters - I Be's Troubled
TTITLE2=Muddy Waters - Burr Clover Farm Blues
TTITLE3=Muddy Waters - Ramblin' Kid Blues
TTITLE4=Muddy Waters - Rosalie
TTITLE5=Muddy Waters - Take A Walk With Me
TTITLE6=Muddy Waters - Burr Clover Blues
TTITLE7=Muddy Waters - I Be Bound To Write To You, No.1
TTITLE8=Muddy Waters - I Be Bound To Write To You, No.2
TTITLE9=Muddy Waters - You're Gonna Miss Me When I'm Gone, No.1
TTITLE10=Muddy Waters - You Got To Take Sick And Die Some Of These Days
TTITLE11=Muddy Waters - Why Don't You Live So God Can Use You
TTITLE12=Muddy Waters - Country Blues, No.2
TTITLE13=Muddy Waters - You're Gonna Miss Me When I'm Gone, No.2
TTITLE14=Muddy Waters - 32-20 Blues
TTITLE15=Robert Lockwood - Little Boy Blue
TTITLE16=Calvin Frazier - She's A Double-Crossin' Woman
TTITLE17=Robert Lee McCoy - Friar's Point Blues
TTITLE18=Big Joe Williams - I'm A Highway Man
TTITLE19=Johnny Shines - Evil Hearted Woman Blues
TTITLE20=Calvin Frazier - Lilly Mae, No.1
TTITLE21=Johnny Shines - Ramblin'
TTITLE22=Honeyboy Edwards - Sweet Home Chicago
TTITLE23=Johnny Shines - Fishtail
TTITLE24=Little Walters - Muskadine Blues
EXTD=
EXTT0=
EXTT1=
EXTT2=
EXTT3=
EXTT4=
EXTT5=
EXTT6=
EXTT7=
EXTT8=
EXTT9=
EXTT10=
EXTT11=
EXTT12=
EXTT13=
EXTT14=
EXTT15=
EXTT16=
EXTT17=
EXTT18=
EXTT19=
EXTT20=
EXTT21=
EXTT22=
EXTT23=
EXTT24=
PLAYORDER=
